<svg version="1.1" id="Layer_1" xmlns="http://www.w3.org/2000/svg" xmlns:xlink="http://www.w3.org/1999/xlink" x="0px" y="0px"
	 width="100%" viewBox="0 0 1024 1024" enable-background="new 0 0 1024 1024" xml:space="preserve">
<path fill="#000000" opacity="1.000000" stroke="none" 
	d="
M771.885010,664.995972 
	C760.578003,639.733826 749.360229,614.845154 738.350586,589.864685 
	C736.718140,586.160706 734.442627,585.249146 730.636292,585.261169 
	C688.144043,585.395569 645.651367,585.364319 603.158752,585.376160 
	C601.825684,585.376526 600.489258,585.418030 599.160217,585.339905 
	C594.790283,585.083069 593.807495,583.644165 595.620850,579.569092 
	C599.343262,571.204529 603.239258,562.917297 607.072937,554.602478 
	C607.491211,553.695251 608.185486,552.861755 608.387207,551.916321 
	C610.816040,540.534546 617.895447,538.063599 629.013000,538.440308 
	C655.810730,539.348328 682.660034,538.736267 709.488586,538.720581 
	C711.099365,538.719666 712.807678,539.069641 714.863342,537.474304 
	C689.083984,479.363037 662.247070,421.685944 637.264465,363.061462 
	C634.798218,364.202179 634.446289,366.340302 633.680847,368.052673 
	C604.866638,432.507385 576.167664,497.013672 547.309692,561.448730 
	C530.089233,599.899170 512.627258,638.241516 495.282227,676.636230 
	C493.294556,681.036133 491.272583,685.424133 489.437347,689.887878 
	C488.411255,692.383728 486.824982,693.423462 484.108826,693.419617 
	C468.946442,693.398071 453.783844,693.490601 438.621338,693.552246 
	C433.855865,693.571594 435.009186,690.933533 436.245911,688.276733 
	C442.641418,674.538147 449.150299,660.851318 455.426422,647.058411 
	C473.497284,607.344666 491.868408,567.769348 509.636627,527.915222 
	C525.974976,491.268280 543.121338,454.982361 559.672729,418.429230 
	C567.216858,401.768280 574.005737,384.766571 581.459595,368.063293 
	C591.295288,346.022827 601.458069,324.128418 611.449829,302.157410 
	C612.552063,299.733612 614.301941,298.698822 616.946228,298.704498 
	C635.276184,298.743774 653.606445,298.768097 671.936157,298.685516 
	C675.270813,298.670502 676.518005,300.661224 677.683472,303.244751 
	C689.873962,330.267639 702.138245,357.257172 714.335205,384.277130 
	C737.218567,434.970734 760.025085,485.699005 782.950928,536.373352 
	C800.729004,575.669434 818.647522,614.901978 836.487061,654.170288 
	C841.375183,664.930054 846.211487,675.713318 851.056519,686.492554 
	C854.036926,693.123291 853.359253,694.136719 845.834900,694.151611 
	C828.004761,694.186890 810.170288,693.970825 792.347107,694.330933 
	C786.661743,694.445740 783.845154,692.090759 781.830139,687.224121 
	C778.774170,679.843628 775.324219,672.626282 771.885010,664.995972 
z"/>
<path fill="#000000" opacity="1.000000" stroke="none" 
	d="
M219.000031,298.740601 
	C226.165237,298.726013 232.843048,298.954895 239.491302,298.611603 
	C244.008026,298.378387 246.494141,300.126740 248.328644,304.161102 
	C258.461517,326.444763 268.837341,348.617767 279.017426,370.880127 
	C301.387085,419.799408 323.690765,468.748932 346.018768,517.687256 
	C358.322052,544.653381 370.618591,571.622620 382.935425,598.582642 
	C383.117859,598.981995 383.523224,599.279541 384.081299,599.918579 
	C391.616730,582.978394 399.015869,566.284607 406.464294,549.612854 
	C420.320404,518.598816 434.224884,487.606384 448.071991,456.588348 
	C459.744812,430.440735 471.325134,404.251801 483.020538,378.114319 
	C492.745148,356.381317 502.576538,334.696167 512.364563,312.991547 
	C512.980896,311.624786 513.962036,310.331146 514.211548,308.905151 
	C515.760193,300.054596 521.096191,297.965363 529.560974,298.498871 
	C541.509949,299.251984 553.543457,298.664948 565.540833,298.647217 
	C575.251221,298.632874 575.724121,299.409729 571.773438,308.093567 
	C550.950317,353.864807 530.178528,399.659332 509.351044,445.428589 
	C489.008484,490.132172 468.604309,534.807739 448.258362,579.509827 
	C436.259674,605.872253 424.206055,632.210938 412.451324,658.682068 
	C410.033081,664.127869 406.978973,666.574097 400.766754,666.338440 
	C388.454041,665.871399 376.107880,666.063049 363.781403,666.293701 
	C359.124451,666.380737 356.528564,664.636536 354.570251,660.404419 
	C336.531189,621.419617 318.274200,582.535767 300.174225,543.579102 
	C282.567535,505.684052 265.127350,467.711639 247.507828,429.822601 
	C233.187088,399.027313 218.676620,368.320374 204.318604,337.542358 
	C199.321304,326.830078 194.484467,316.042053 189.661407,305.249725 
	C187.326538,300.025055 188.188522,298.794434 194.006241,298.763672 
	C202.170670,298.720490 210.335434,298.744873 219.000031,298.740601 
z"/>
<path fill="#000000" opacity="1.000000" stroke="none" 
	d="
M183.759644,378.549622 
	C198.785431,413.792023 213.630371,448.716278 228.555527,483.606201 
	C230.152222,487.338776 231.174957,491.042542 231.171173,495.159698 
	C231.112274,559.120667 231.094971,623.081665 231.209854,687.042480 
	C231.218216,691.703308 229.934189,693.544434 225.007446,693.430176 
	C212.355072,693.136658 199.685989,693.096130 187.035431,693.418762 
	C181.895142,693.549866 180.588913,691.806580 180.595169,686.832336 
	C180.720139,587.392700 180.682068,487.952820 180.676971,388.513000 
	C180.676758,384.393250 180.676941,380.273499 180.676941,376.228485 
	C182.852249,375.919769 183.069763,377.250671 183.759644,378.549622 
z"/>
<path fill="#000000" opacity="1.000000" stroke="none" 
	d="
M479.227509,346.277283 
	C485.808167,331.475159 492.216461,317.011200 498.636902,302.552643 
	C499.514069,300.577301 500.359467,297.961914 503.160339,299.207062 
	C506.197388,300.557190 504.228790,302.966553 503.435272,304.766815 
	C492.084808,330.517670 480.719635,356.262299 469.253967,381.962006 
	C444.895935,436.559082 420.477112,491.128998 396.083466,545.710205 
	C393.365601,551.791504 390.669861,557.882751 387.919067,563.949097 
	C387.108429,565.736816 386.509583,567.874817 384.048737,568.053284 
	C381.204102,568.259705 380.568329,565.874939 379.683044,563.961182 
	C368.705078,540.230164 357.710785,516.506409 346.814606,492.737732 
	C331.199066,458.674408 315.630768,424.589294 300.098572,390.487854 
	C285.811676,359.120514 271.479248,327.772705 257.454987,296.287994 
	C254.643219,289.975525 251.357315,286.920135 243.797546,287.189575 
	C225.345535,287.847198 206.854172,288.144287 188.378326,287.412170 
	C187.546738,287.379211 186.711548,287.444061 185.879288,287.420044 
	C184.234146,287.372589 182.830307,286.947998 182.911255,284.913727 
	C182.980560,283.172119 184.270844,282.765625 185.695969,282.723541 
	C187.860275,282.659607 190.027145,282.670624 192.192932,282.671356 
	C212.022491,282.678253 231.852844,282.785187 251.680939,282.619049 
	C255.626038,282.585999 257.722778,284.039978 259.308075,287.527740 
	C288.528473,351.813263 317.801910,416.074707 347.127747,480.312195 
	C358.263580,504.704956 369.548737,529.029541 380.805969,553.366638 
	C381.542389,554.958801 381.934235,556.879333 384.634003,558.125122 
	C416.127319,487.581451 447.593140,417.099304 479.227509,346.277283 
z"/>
<path fill="#000000" opacity="1.000000" stroke="none" 
	d="
M539.925903,623.825684 
	C527.679626,651.234131 515.485168,678.250244 503.604034,705.403503 
	C501.360504,710.530945 498.579041,712.578918 492.763977,712.451294 
	C473.944000,712.038025 455.109375,712.295593 436.280396,712.286499 
	C434.948883,712.285828 433.612793,712.273743 432.287018,712.166199 
	C430.765259,712.042786 429.796631,711.251038 429.830078,709.616577 
	C429.862976,708.009705 430.860474,707.175659 432.342163,707.041687 
	C434.163055,706.877075 436.000305,706.840698 437.830536,706.840210 
	C455.492981,706.835022 473.156494,706.748901 490.817108,706.932983 
	C494.865723,706.975159 497.109924,705.667114 498.797821,701.883423 
	C521.389526,651.240417 544.170593,600.681885 566.808044,550.059204 
	C587.882996,502.930267 608.842529,455.749695 629.854431,408.592529 
	C630.057739,408.136383 630.235901,407.660126 630.503296,407.242981 
	C631.690796,405.390289 632.379822,402.197021 635.454712,403.796356 
	C638.170410,405.208923 636.353638,407.684479 635.542053,409.517700 
	C625.297119,432.659485 614.993347,455.775238 604.675781,478.884796 
	C583.155029,527.087585 561.617188,575.282715 539.925903,623.825684 
z"/>
</svg>